<?xml version="1.0" encoding="iso-8859-1"?>
<!-- Generator: Adobe Illustrator 19.0.0, SVG Export Plug-In . SVG Version: 6.00 Build 0)  -->
<svg version="1.1" id="Capa_1" xmlns="http://www.w3.org/2000/svg" xmlns:xlink="http://www.w3.org/1999/xlink" x="0px" y="0px"
     viewBox="0 0 480.221 480.221" style="enable-background:new 0 0 480.221 480.221;" xml:space="preserve">
<g>
	<g>
		<path fill="#dd362f" d="M240.111,72.221c-4.418,0-8-3.582-8-8s3.582-8,8-8s8,3.582,8,8h16c-0.042-10.134-6.445-19.15-16-22.528v-9.472h-16v9.472
			c-12.473,4.393-19.023,18.066-14.629,30.539c3.38,9.596,12.455,16.009,22.629,15.989c4.418,0,8,3.582,8,8s-3.582,8-8,8
			s-8-3.582-8-8h-16c0.042,10.134,6.445,19.15,16,22.528v9.472h16v-9.472c12.473-4.393,19.023-18.066,14.629-30.539
			C259.36,78.615,250.285,72.202,240.111,72.221z"/>
	</g>
</g>
    <g>
	<g>
		<path fill="#dd362f" d="M405.799,232.221h2.312c4.418,0,8-3.582,8-8c-0.057-48.577-39.423-87.943-88-88c-4.418,0-8,3.582-8,8v2.312
			c-7.726-3.728-15.706-6.907-23.88-9.512c31.492-30.99,31.899-81.641,0.909-113.133s-81.641-31.899-113.133-0.909
			s-31.899,81.641-0.909,113.133c0.301,0.306,0.604,0.609,0.909,0.909c-8.179,2.617-16.164,5.807-23.896,9.544v-2.344
			c0-4.418-3.582-8-8-8c-48.577,0.057-87.943,39.423-88,88c0,4.418,3.582,8,8,8h2.312c-12.043,24.95-18.302,52.296-18.312,80
			c0.053,41.678,21.74,80.34,57.28,102.112l11.928,47.712c2.673,10.684,12.274,18.178,23.288,18.176h24
			c10.329,0,19.5-6.609,22.768-16.408l10.504-31.592h68.464l10.568,31.592c3.263,9.785,12.413,16.391,22.728,16.408h24
			c11.014,0.002,20.615-7.492,23.288-18.176l11.928-47.712c35.53-21.778,57.208-60.439,57.256-102.112
			C424.101,284.517,417.841,257.172,405.799,232.221z M336.111,152.661c33.407,3.792,59.768,30.153,63.56,63.56h-63.56V152.661z
			 M176.111,80.221c-0.069-35.346,28.529-64.056,63.875-64.125c35.346-0.069,64.056,28.529,64.125,63.875
			c0.04,20.654-9.889,40.057-26.664,52.106c-24.636-5.136-50.068-5.136-74.704,0C186.04,120.083,176.129,100.785,176.111,80.221z
			 M144.111,152.661v63.56h-63.56C84.343,182.815,110.704,156.454,144.111,152.661z M180.167,458.749
			c-1.088,3.266-4.142,5.469-7.584,5.472h-24c-3.675,0.003-6.879-2.498-7.768-6.064l-8.584-34.352
			c13.965,5.547,28.854,8.403,43.88,8.416h12.896L180.167,458.749z M339.367,458.157c-0.889,3.566-4.093,6.067-7.768,6.064h-24
			c-3.442-0.003-6.496-2.206-7.584-5.472l-8.8-26.528h12.896c15.018-0.016,29.898-2.872,43.856-8.416L339.367,458.157z
			 M304.111,416.221h-128c-57.41-0.066-103.934-46.59-104-104c0.017-27.943,7.007-55.441,20.336-80h59.664c4.418,0,8-3.582,8-8
			v-59.664c49.887-27.114,110.113-27.114,160,0v59.664c0,4.418,3.582,8,8,8h59.664c13.328,24.56,20.318,52.057,20.336,80
			C408.045,369.632,361.521,416.155,304.111,416.221z"/>
	</g>
</g>
    <g>
	<g>
		<path fill="#dd362f" d="M240.111,304.221c-35.288,0-64,21.528-64,48s28.712,48,64,48c35.288,0,64-21.528,64-48S275.399,304.221,240.111,304.221z
			 M240.111,384.221c-26.016,0-48-14.656-48-32s21.984-32,48-32s48,14.656,48,32S266.127,384.221,240.111,384.221z"/>
	</g>
</g>
    <g>
	<g>
		<path fill="#dd362f" d="M165.791,282.541l-1.2-0.96c-0.446-0.303-0.93-0.545-1.44-0.72c-0.453-0.231-0.939-0.393-1.44-0.48
			c-2.635-0.538-5.365,0.272-7.28,2.16c-3.137,3.111-3.158,8.177-0.047,11.314c1.513,1.526,3.577,2.379,5.727,2.366
			c0.537-0.014,1.071-0.067,1.6-0.16c0.501-0.087,0.987-0.249,1.44-0.48c0.51-0.175,0.994-0.417,1.44-0.72l1.2-0.96
			C168.885,290.747,168.885,285.696,165.791,282.541z"/>
	</g>
</g>
    <g>
	<g>
		<path fill="#dd362f" d="M327.471,285.181c-0.727-2.01-2.31-3.593-4.32-4.32c-2.979-1.253-6.419-0.59-8.72,1.68
			c-0.706,0.778-1.274,1.671-1.68,2.64c-0.41,0.962-0.627,1.995-0.64,3.04c-0.044,4.374,3.465,7.956,7.839,8
			c0.054,0.001,0.107,0.001,0.161,0c1.045-0.013,2.078-0.23,3.04-0.64c0.969-0.406,1.862-0.974,2.64-1.68
			c1.461-1.534,2.289-3.562,2.32-5.68C328.098,287.176,327.881,286.143,327.471,285.181z"/>
	</g>
</g>
    <g>
	<g>
		<path fill="#dd362f" d="M223.953,344.382c-4.374,0.044-7.884,3.625-7.841,7.999c0.021,2.073,0.853,4.055,2.319,5.521
			c1.534,1.461,3.562,2.289,5.68,2.32c4.374-0.044,7.884-3.625,7.841-7.999C231.908,347.849,228.327,344.339,223.953,344.382z"/>
	</g>
</g>
    <g>
	<g>
		<path fill="#dd362f" d="M255.953,344.382c-4.374,0.044-7.884,3.625-7.841,7.999c0.021,2.073,0.853,4.055,2.319,5.521
			c1.534,1.461,3.562,2.289,5.68,2.32c4.374-0.044,7.884-3.625,7.841-7.999C263.908,347.849,260.327,344.339,255.953,344.382z"/>
	</g>
</g>
    <g>
</g>
    <g>
</g>
    <g>
</g>
    <g>
</g>
    <g>
</g>
    <g>
</g>
    <g>
</g>
    <g>
</g>
    <g>
</g>
    <g>
</g>
    <g>
</g>
    <g>
</g>
    <g>
</g>
    <g>
</g>
    <g>
</g>
</svg>
