<?xml version="1.0" encoding="iso-8859-1"?>
<!-- Generator: Adobe Illustrator 19.0.0, SVG Export Plug-In . SVG Version: 6.00 Build 0)  -->
<svg version="1.1" id="Capa_1" xmlns="http://www.w3.org/2000/svg" xmlns:xlink="http://www.w3.org/1999/xlink" x="0px" y="0px"
     viewBox="0 0 480 480" style="enable-background:new 0 0 480 480;" xml:space="preserve">
<g>
	<g>
		<path fill="#dd362f" d="M357.6,240.464c-1.62-5.043-6.311-8.464-11.608-8.464h-23.2l-7.2-22.048c-2.09-6.424-8.992-9.938-15.416-7.848
			c-3.721,1.21-6.638,4.127-7.848,7.848L285.2,232h-8.208l-6.592-20.24l18.744-13.6c5.47-3.965,6.69-11.613,2.725-17.083
			c-2.305-3.18-5.997-5.06-9.925-5.053h-23.2l-7.2-22.048c-2.09-6.424-8.992-9.938-15.416-7.848
			c-3.721,1.21-6.638,4.127-7.848,7.848L221.2,176H198c-6.756-0.006-12.237,5.466-12.242,12.222
			c-0.003,3.919,1.872,7.603,5.042,9.906l18.752,13.6L203.008,232h-8.2l-7.2-22.048c-2.09-6.424-8.992-9.938-15.416-7.848
			c-3.721,1.21-6.638,4.127-7.848,7.848L157.2,232H134c-6.756-0.006-12.237,5.466-12.242,12.222
			c-0.003,3.919,1.872,7.603,5.042,9.906l18.752,13.6l-7.152,22.096c-2.085,6.426,1.433,13.325,7.859,15.41
			c3.723,1.208,7.799,0.562,10.965-1.738L176,289.864l18.768,13.6c5.455,3.977,13.102,2.779,17.079-2.676
			c2.306-3.163,2.958-7.239,1.753-10.964l-7.2-22.064l18.744-13.6c4.004-2.927,5.822-7.996,4.592-12.8l10.24-7.44l10.24,7.44
			c-1.234,4.803,0.581,9.873,4.584,12.8l18.752,13.6l-7.2,22.064c-2.085,6.426,1.433,13.325,7.859,15.41
			c3.723,1.208,7.799,0.562,10.965-1.738L304,289.864l18.768,13.6c5.455,3.977,13.102,2.779,17.079-2.676
			c2.306-3.163,2.958-7.239,1.753-10.964l-7.2-22.064l18.744-13.6C357.458,251.055,359.261,245.513,357.6,240.464z M192.312,258.232
			c-2.8,2.037-3.971,5.643-2.904,8.936l5.384,16.568l-14.088-10.232c-2.805-2.039-6.603-2.039-9.408,0l-14.088,10.24l5.384-16.576
			c1.067-3.293-0.104-6.899-2.904-8.936L145.6,248h17.408c3.466,0,6.537-2.232,7.608-5.528L176,225.92l5.384,16.56
			c1.074,3.293,4.144,5.521,7.608,5.52H206.4L192.312,258.232z M244.712,217.504c-2.806-2.043-6.61-2.043-9.416,0l-14.088,10.24
			l5.384-16.576c1.067-3.293-0.104-6.899-2.904-8.936L209.6,192h17.408c3.466,0,6.537-2.232,7.608-5.528L240,169.92l5.384,16.56
			c1.074,3.293,4.144,5.521,7.608,5.52H270.4l-14.08,10.232c-2.799,2.037-3.971,5.643-2.904,8.936l5.384,16.568L244.712,217.504z
			 M320.312,258.232c-2.8,2.037-3.971,5.643-2.904,8.936l5.384,16.568l-14.088-10.232c-2.805-2.039-6.603-2.039-9.408,0
			l-14.088,10.24l5.384-16.576c1.067-3.293-0.104-6.899-2.904-8.936L273.6,248h17.408c3.466,0,6.537-2.232,7.608-5.528L304,225.92
			l5.384,16.56c1.074,3.293,4.144,5.521,7.608,5.52H334.4L320.312,258.232z"/>
	</g>
</g>
    <g>
	<g>
		<path fill="#dd362f" d="M446.656,387.56L433.6,368l13.04-19.56c2.452-3.675,1.461-8.643-2.215-11.095c-1.31-0.874-2.85-1.342-4.425-1.345h-30.664
			c9.734-22.753,14.724-47.253,14.664-72c0.021-101.62-82.342-184.017-183.962-184.038S56.021,162.304,56,263.924
			c-0.005,24.769,4.991,49.284,14.688,72.076H40c-4.418-0.001-8.001,3.581-8.001,7.999c0,1.581,0.468,3.126,1.345,4.441L46.4,368
			l-13.04,19.56c-1.644,2.452-1.804,5.61-0.416,8.216c1.393,2.602,4.105,4.225,7.056,4.224h64c3.096-0.007,5.906-1.811,7.2-4.624
			c71.535,70.16,186.065,70.16,257.6,0c1.305,2.803,4.108,4.604,7.2,4.624h64c4.418,0.001,8.001-3.581,8.001-7.999
			C448.001,390.42,447.533,388.875,446.656,387.56z M54.944,384l7.712-11.56c1.794-2.688,1.794-6.192,0-8.88L54.944,352H78.48
			c0.512,0.944,0.992,1.904,1.52,2.84V376c0.008,2.124,0.853,4.159,2.352,5.664L84.688,384H54.944z M240,432
			c-43.968,0.051-86.193-17.19-117.56-48h24.496c54.734,42.666,131.466,42.666,186.2,0H357.6
			C326.226,414.824,283.983,432.066,240,432z M176.272,384h127.52C263.962,405.334,216.102,405.334,176.272,384z M384,368H96v-32
			h288V368z M104,264c0-75.111,60.889-136,136-136s136,60.889,136,136c-0.01,19.329-4.185,38.429-12.24,56H116.232
			C108.182,302.428,104.01,283.328,104,264z M381.288,320c7.104-17.814,10.74-36.821,10.712-56
			c0.017-83.947-68.022-152.014-151.969-152.031S88.017,179.991,88,263.939c-0.004,19.195,3.628,38.218,10.704,56.061H88
			c-2.061,0.01-4.038,0.816-5.52,2.248c-32.245-86.921,12.079-183.523,99-215.768C200.208,99.533,220.025,95.984,240,96
			c92.74,0.106,167.894,75.26,168,168c0.049,19.903-3.474,39.653-10.4,58.312c-1.491-1.475-3.502-2.305-5.6-2.312H381.288z
			 M417.344,372.44l7.712,11.56h-29.744l2.336-2.336c0.744-0.737,1.331-1.615,1.728-2.584c0.412-0.975,0.624-2.022,0.624-3.08v-24
			h25.056l-7.712,11.56C415.55,366.248,415.55,369.752,417.344,372.44z"/>
	</g>
</g>
    <g>
	<g>
		<path fill="#dd362f" d="M472,0H8C3.582,0,0,3.582,0,8v464c0,4.418,3.582,8,8,8h464c4.418,0,8-3.582,8-8V8C480,3.582,476.418,0,472,0z M464,464H16
			V64h448V464z M464,48H16V16h448V48z"/>
	</g>
</g>
    <g>
	<g>
		<path fill="#dd362f" d="M424.047,23.954c-2.149-0.013-4.213,0.84-5.727,2.366c-1.465,1.531-2.294,3.561-2.32,5.68
			c-0.028,1.049,0.192,2.091,0.64,3.04c0.408,0.968,0.976,1.861,1.68,2.64c3.155,3.094,8.205,3.094,11.36,0
			c0.704-0.779,1.272-1.672,1.68-2.64c0.41-0.962,0.627-1.995,0.64-3.04C432.026,27.582,428.465,23.979,424.047,23.954z"/>
	</g>
</g>
    <g>
	<g>
		<path fill="#dd362f" d="M448.047,23.954c-2.149-0.013-4.213,0.84-5.727,2.366c-1.465,1.531-2.294,3.561-2.32,5.68
			c-0.028,1.049,0.192,2.091,0.64,3.04c0.408,0.968,0.976,1.861,1.68,2.64c3.155,3.094,8.205,3.094,11.36,0
			c0.704-0.779,1.272-1.672,1.68-2.64c0.41-0.962,0.627-1.995,0.64-3.04C456.026,27.582,452.465,23.979,448.047,23.954z"/>
	</g>
</g>
    <g>
	<g>
		<path fill="#dd362f" d="M400.047,23.954c-2.149-0.013-4.213,0.84-5.727,2.366c-1.465,1.531-2.294,3.561-2.32,5.68
			c-0.028,1.049,0.192,2.091,0.64,3.04c0.408,0.968,0.976,1.861,1.68,2.64c3.155,3.094,8.205,3.094,11.36,0
			c0.704-0.779,1.272-1.672,1.68-2.64c0.41-0.962,0.627-1.995,0.64-3.04C408.026,27.582,404.465,23.979,400.047,23.954z"/>
	</g>
</g>
    <g>
</g>
    <g>
</g>
    <g>
</g>
    <g>
</g>
    <g>
</g>
    <g>
</g>
    <g>
</g>
    <g>
</g>
    <g>
</g>
    <g>
</g>
    <g>
</g>
    <g>
</g>
    <g>
</g>
    <g>
</g>
    <g>
</g>
</svg>
